<?xml version="1.0" encoding="UTF-8" standalone="no"?>
<!-- Created with Inkscape (http://www.inkscape.org/) -->

<svg
   xmlns:dc="http://purl.org/dc/elements/1.1/"
   xmlns:cc="http://creativecommons.org/ns#"
   xmlns:rdf="http://www.w3.org/1999/02/22-rdf-syntax-ns#"
   xmlns:svg="http://www.w3.org/2000/svg"
   xmlns="http://www.w3.org/2000/svg"
   xmlns:sodipodi="http://sodipodi.sourceforge.net/DTD/sodipodi-0.dtd"
   xmlns:inkscape="http://www.inkscape.org/namespaces/inkscape"
   width="5.39394in"
   height="3.5555563in"
   viewBox="0 0 485.4546 320.00007"
   id="svg2"
   version="1.1"
   inkscape:version="0.91 r13725"
   sodipodi:docname="scoreboard.svg">
  <defs
     id="defs4" />
  <sodipodi:namedview
     id="base"
     pagecolor="#000000"
     bordercolor="#666666"
     borderopacity="1.0"
     inkscape:pageopacity="0"
     inkscape:pageshadow="2"
     inkscape:zoom="1.4"
     inkscape:cx="214.23258"
     inkscape:cy="160.70535"
     inkscape:document-units="px"
     inkscape:current-layer="layer1"
     showgrid="true"
     fit-margin-top="0"
     fit-margin-left="0"
     fit-margin-right="0"
     fit-margin-bottom="0"
     inkscape:snap-text-baseline="true"
     inkscape:snap-center="true"
     inkscape:snap-object-midpoints="true"
     inkscape:object-paths="true"
     inkscape:snap-intersection-paths="true"
     inkscape:object-nodes="true"
     inkscape:snap-smooth-nodes="true"
     inkscape:snap-midpoints="true"
     inkscape:snap-bbox="true"
     inkscape:bbox-paths="true"
     inkscape:bbox-nodes="true"
     inkscape:snap-bbox-edge-midpoints="true"
     inkscape:snap-bbox-midpoints="true"
     units="ft"
     inkscape:window-width="1366"
     inkscape:window-height="741"
     inkscape:window-x="0"
     inkscape:window-y="27"
     inkscape:window-maximized="1"
     inkscape:snap-page="true">
    <inkscape:grid
       type="xygrid"
       id="grid3338"
       originx="-84.545405"
       originy="-79.999932" />
  </sodipodi:namedview>
  <metadata
     id="metadata7">
    <rdf:RDF>
      <cc:Work
         rdf:about="">
        <dc:format>image/svg+xml</dc:format>
        <dc:type
           rdf:resource="http://purl.org/dc/dcmitype/StillImage" />
        <dc:title />
      </cc:Work>
    </rdf:RDF>
  </metadata>
  <g
     inkscape:label="Tavolo 1"
     inkscape:groupmode="layer"
     id="layer1"
     transform="translate(215.45459,-312.36218)">
    <g
       style="color:#000000;font-style:normal;font-variant:normal;font-weight:normal;font-stretch:normal;font-size:37.5px;line-height:110.00000238%;font-family:'Fira Sans';-inkscape-font-specification:'Fira Sans';text-align:center;writing-mode:lr-tb;text-anchor:middle;clip-rule:nonzero;display:inline;overflow:visible;visibility:visible;opacity:1;color-interpolation:sRGB;color-interpolation-filters:linearRGB;fill:#ffffff;fill-opacity:1;fill-rule:nonzero;stroke:none;stroke-width:34.56900024;stroke-linecap:butt;stroke-linejoin:round;stroke-miterlimit:4;stroke-dasharray:none;stroke-dashoffset:0.80000001;stroke-opacity:1;marker:none;color-rendering:auto;image-rendering:auto;shape-rendering:auto;text-rendering:auto;enable-background:accumulate"
       id="text3342">
      <path
         d="m -52.723553,386.07471 c -5.8125,0 -11.1375,4.65 -11.1375,13.35 0,8.925 4.1625,13.3875 10.575,13.3875 3.6375,0 6.3375,-0.9 8.7,-2.2875 l 0,-12.4875 -8.5125,0 0.4125,2.8875 4.575,0 0,7.7625 c -1.4625,0.8625 -3.1875,1.2 -4.9125,1.2 -4.5375,0 -7.05,-3.0375 -7.05,-10.4625 0,-7.6125 3.7125,-10.425 7.425,-10.425 2.325,0 3.8625,0.6375 5.6625,2.1 l 2.1,-2.175 c -2.2125,-1.8375 -4.35,-2.85 -7.8375,-2.85 z"
         style=""
         id="path3343" />
      <path
         d="m -25.391327,407.74971 0,-9.0375 c 0,-4.125 -2.175,-6.5625 -6.9375,-6.5625 -2.2125,0 -4.3875,0.45 -6.825,1.35 l 0.8625,2.5125 c 2.025,-0.675 3.8625,-1.05 5.325,-1.05 2.7375,0 4.125,1.05 4.125,3.9 l 0,1.4625 -3.0375,0 c -5.5125,0 -8.7,2.2875 -8.7,6.525 0,3.525 2.3625,5.9625 6.3,5.9625 2.4,0 4.5,-0.9 5.8875,-2.9625 0.6,1.95 1.875,2.7375 3.8625,2.9625 l 0.7875,-2.4 c -1.0125,-0.375 -1.65,-0.9375 -1.65,-2.6625 z m -8.1,2.475 c -2.25,0 -3.4125,-1.2375 -3.4125,-3.5625 0,-2.7 1.8375,-4.05 5.475,-4.05 l 2.5875,0 0,4.5375 c -1.125,2.0625 -2.625,3.075 -4.65,3.075 z"
         style=""
         id="path3345" />
      <path
         d="m 1.5682434,392.14971 c -2.6625,0 -4.4625,1.425 -5.8875,3.5625 -0.75,-2.25 -2.55,-3.5625 -4.9875,-3.5625 -2.5875004,0 -4.3875004,1.35 -5.7000004,3.3375 l -0.3,-2.8875 -2.9625,0 0,19.7625 3.45,0 0,-14.025 c 1.3125,-2.1 2.5125,-3.4875 4.65,-3.4875 1.5000004,0 2.7750004,0.8625 2.7750004,3.825 l 0,13.6875 3.45,0 0,-14.025 c 1.35,-2.1 2.5125,-3.4875 4.65000001,-3.4875 1.49999999,0 2.77499999,0.8625 2.77499999,3.825 l 0,13.6875 3.45,0 0,-14.175 c 0,-3.7125 -2.1375,-6.0375 -5.3625,-6.0375 z"
         style=""
         id="path3347" />
      <path
         d="m 28.809064,401.89971 c 0,-6.0375 -2.8125,-9.75 -8.1375,-9.75 -5.1,0 -8.2125,4.3875 -8.2125,10.5375 0,6.2625 3.225,10.125 8.7375,10.125 2.7375,0 4.95,-0.9375 6.9,-2.475 l -1.5,-2.0625 c -1.725,1.2 -3.1875,1.725 -5.1375,1.725 -2.85,0 -4.9875,-1.7625 -5.325,-6.3375 l 12.6,0 c 0.0375,-0.45 0.075,-1.0875 0.075,-1.7625 z m -3.4125,-0.7875 -9.2625,0 c 0.2625,-4.3875 1.9875,-6.225 4.6125,-6.225 3.1125,0 4.65,2.1375 4.65,6 l 0,0.225 z"
         style=""
         id="path3349" />
      <path
         d="m 53.911798,386.07471 c -6.45,0 -10.9125,4.9125 -10.9125,13.425 0,8.6625 4.4625,13.3125 10.9125,13.3125 6.4875,0 10.9125,-4.8 10.9125,-13.35 0,-8.7 -4.425,-13.3875 -10.9125,-13.3875 z m 0,2.925 c 4.425,0 7.125,3.0375 7.125,10.4625 0,7.5 -2.775,10.425 -7.125,10.425 -4.2,0 -7.125,-2.925 -7.125,-10.3875 0,-7.4625 2.8125,-10.5 7.125,-10.5 z"
         style=""
         id="path3351" />
      <path
         d="m 84.939532,392.59971 -3.6375,0 -5.1375,16.6875 -5.175,-16.6875 -3.75,0 6.825,19.7625 4.1625,0 6.7125,-19.7625 z"
         style=""
         id="path3353" />
      <path
         d="m 103.44285,401.89971 c 0,-6.0375 -2.8125,-9.75 -8.137497,-9.75 -5.1,0 -8.2125,4.3875 -8.2125,10.5375 0,6.2625 3.225,10.125 8.7375,10.125 2.7375,0 4.949997,-0.9375 6.899997,-2.475 l -1.5,-2.0625 c -1.724997,1.2 -3.187497,1.725 -5.137497,1.725 -2.85,0 -4.9875,-1.7625 -5.325,-6.3375 l 12.599997,0 c 0.0375,-0.45 0.075,-1.0875 0.075,-1.7625 z m -3.4125,-0.7875 -9.262497,0 c 0.2625,-4.3875 1.9875,-6.225 4.6125,-6.225 3.1125,0 4.649997,2.1375 4.649997,6 l 0,0.225 z"
         style=""
         id="path3355" />
      <path
         d="m 117.75965,392.14971 c -2.4,0 -4.2375,1.5 -5.2875,4.4625 l -0.3375,-4.0125 -2.9625,0 0,19.7625 3.45,0 0,-11.2875 c 0.825,-3.7875 2.25,-5.55 4.725,-5.55 0.7125,0 1.125,0.075 1.725,0.225 l 0.6375,-3.375 c -0.6,-0.15 -1.3125,-0.225 -1.95,-0.225 z"
         style=""
         id="path3357" />
    </g>
    <text
       sodipodi:linespacing="110%"
       id="text3338"
       y="292.36221"
       x="27.094025"
       style="color:#000000;font-style:normal;font-variant:normal;font-weight:normal;font-stretch:normal;font-size:37.5px;line-height:110.00000238%;font-family:'Fira Sans';-inkscape-font-specification:'Fira Sans';text-align:center;writing-mode:lr-tb;text-anchor:middle;clip-rule:nonzero;display:inline;overflow:visible;visibility:visible;opacity:1;color-interpolation:sRGB;color-interpolation-filters:linearRGB;fill:#ffffff;fill-opacity:1;fill-rule:nonzero;stroke:none;stroke-width:34.56900024;stroke-linecap:butt;stroke-linejoin:round;stroke-miterlimit:4;stroke-dasharray:none;stroke-dashoffset:0.80000001;stroke-opacity:1;marker:none;color-rendering:auto;image-rendering:auto;shape-rendering:auto;text-rendering:auto;enable-background:accumulate"
       xml:space="preserve"><tspan
         y="292.36221"
         x="27.094025"
         id="tspan3340"
         sodipodi:role="line">Game Over</tspan></text>
  </g>
</svg>
